Catch.44.2011.BRRip.XViD-RLF
~~~~~~~~~~~~~~~~~~~~~~~~~~~~                                            

General:

Complete name                    : rlf-catch44.avi
Format                           : AVI
Format/Info                      : Audio Video Interleave
File size                        : 699 MiB
Duration                         : 1h 33mn
Overall bit rate                 : 1 041 Kbps
Language                         : English
Subs                             : N/A 
Encoder                          : Ralf

Video:

Format                           : MPEG-4 Visual
Format profile                   : Advanced Simple@L5
Format settings, BVOP            : 2
Format settings, QPel            : No
Format settings, GMC             : No warppoints
Format settings, Matrix          : H.263
Muxing mode                      : Packed bitstream
Codec ID                         : XVID
Duration                         : 1h 33mn
Bit rate                         : 900 Kbps
Width                            : 688 pixels
Height                           : 288 pixels
Display aspect ratio             : 2.35:1
Frame rate                       : 23.976 fps
Color space                      : YUV
Chroma subsampling               : 4:2:0
Bit depth                        : 8 bits
Scan type                        : Progressive
Bits/(Pixel*Frame)               : 0.189
Stream size                      : 604 MiB (86%)

Audio:


Format                           : MPEG Audio
Format profile                   : Layer 3
Codec ID/Hint                    : MP3
Duration                         : 1h 33mn
Bit rate mode                    : Constant
Bit rate                         : 128 Kbps
Channel(s)                       : 2 channels
Sampling rate                    : 48.0 KHz
Stream size                      : 85.9 MiB (12%)
Alignment                        : Split accross interleaves
Interleave, duration             : 24 ms (0.58 video frame)


MOVIE INFO:

For Tes and her two cohorts  Kara and Tara, the job sounded 
simple enough:  intercept a double-cross drug shipment for their crime 
boss Mel at an isolated diner. But when an unstoppable chain of events 
unfolds, everyone soon realizes no one is who they seem and the job may 
be something other than eliminating the competition. What started as 
simple instructions has now turned into a deadly cat-and-mouse game 
with large guns pointed at everyone.
                                           
http://www.imdb.com/title/tt1886493/ 
http://www.filmweb.pl/film/Catch+.44-2011-491087
                                               
SOURCE:

HDChina's 1080p.BluRay.x264 (THX)

SCREENS:
 
http://www.postimg.com/54000/photo-53572.jpg 
http://www.postimg.com/54000/photo-53573.jpg 
http://www.postimg.com/54000/photo-53574.jpg 
http://www.postimg.com/54000/photo-53575.jpg